<mxfile host="Electron" agent="Mozilla/5.0 (Windows NT 10.0; Win64; x64) AppleWebKit/537.36 (KHTML, like Gecko) draw.io/28.0.6 Chrome/138.0.7204.100 Electron/37.2.3 Safari/537.36" version="28.0.6">
  <diagram name="Page-1" id="qQ0YdHa7n-M26z1mvwUp">
    <mxGraphModel dx="1426" dy="841" grid="1" gridSize="10" guides="1" tooltips="1" connect="1" arrows="1" fold="1" page="0" pageScale="1" pageWidth="850" pageHeight="1100" math="0" shadow="0">
      <root>
        <mxCell id="0" />
        <mxCell id="1" parent="0" />
        <mxCell id="YhMfxbLQYq7M46aQQ9Mp-1" value="&lt;b&gt;&lt;font style=&quot;font-size: 14px;&quot;&gt;crm_cust_info&lt;/font&gt;&lt;/b&gt;" style="swimlane;fontStyle=0;childLayout=stackLayout;horizontal=1;startSize=30;horizontalStack=0;resizeParent=1;resizeParentMax=0;resizeLast=0;collapsible=1;marginBottom=0;whiteSpace=wrap;html=1;fillColor=#dae8fc;strokeColor=#6c8ebf;rounded=1;" parent="1" vertex="1">
          <mxGeometry x="320" y="510" width="180" height="90" as="geometry" />
        </mxCell>
        <mxCell id="YhMfxbLQYq7M46aQQ9Mp-2" value="cst_id" style="text;strokeColor=none;fillColor=none;align=left;verticalAlign=middle;spacingLeft=4;spacingRight=4;overflow=hidden;points=[[0,0.5],[1,0.5]];portConstraint=eastwest;rotatable=0;whiteSpace=wrap;html=1;" parent="YhMfxbLQYq7M46aQQ9Mp-1" vertex="1">
          <mxGeometry y="30" width="180" height="30" as="geometry" />
        </mxCell>
        <mxCell id="YhMfxbLQYq7M46aQQ9Mp-3" value="cst_key" style="text;strokeColor=none;fillColor=none;align=left;verticalAlign=middle;spacingLeft=4;spacingRight=4;overflow=hidden;points=[[0,0.5],[1,0.5]];portConstraint=eastwest;rotatable=0;whiteSpace=wrap;html=1;" parent="YhMfxbLQYq7M46aQQ9Mp-1" vertex="1">
          <mxGeometry y="60" width="180" height="30" as="geometry" />
        </mxCell>
        <mxCell id="YhMfxbLQYq7M46aQQ9Mp-5" value="&lt;font style=&quot;font-size: 10px;&quot;&gt;Customer Information&lt;/font&gt;" style="text;html=1;align=center;verticalAlign=middle;whiteSpace=wrap;rounded=0;" parent="1" vertex="1">
          <mxGeometry x="340" y="480" width="140" height="30" as="geometry" />
        </mxCell>
        <mxCell id="YhMfxbLQYq7M46aQQ9Mp-6" value="&lt;b&gt;&lt;font style=&quot;font-size: 14px;&quot;&gt;crm_sales_details&lt;/font&gt;&lt;/b&gt;" style="swimlane;fontStyle=0;childLayout=stackLayout;horizontal=1;startSize=30;horizontalStack=0;resizeParent=1;resizeParentMax=0;resizeLast=0;collapsible=1;marginBottom=0;whiteSpace=wrap;html=1;fillColor=#dae8fc;strokeColor=#6c8ebf;rounded=1;" parent="1" vertex="1">
          <mxGeometry x="40" y="390" width="180" height="90" as="geometry" />
        </mxCell>
        <mxCell id="YhMfxbLQYq7M46aQQ9Mp-7" value="prd_key" style="text;strokeColor=none;fillColor=none;align=left;verticalAlign=middle;spacingLeft=4;spacingRight=4;overflow=hidden;points=[[0,0.5],[1,0.5]];portConstraint=eastwest;rotatable=0;whiteSpace=wrap;html=1;" parent="YhMfxbLQYq7M46aQQ9Mp-6" vertex="1">
          <mxGeometry y="30" width="180" height="30" as="geometry" />
        </mxCell>
        <mxCell id="YhMfxbLQYq7M46aQQ9Mp-8" value="cst_id" style="text;strokeColor=none;fillColor=none;align=left;verticalAlign=middle;spacingLeft=4;spacingRight=4;overflow=hidden;points=[[0,0.5],[1,0.5]];portConstraint=eastwest;rotatable=0;whiteSpace=wrap;html=1;" parent="YhMfxbLQYq7M46aQQ9Mp-6" vertex="1">
          <mxGeometry y="60" width="180" height="30" as="geometry" />
        </mxCell>
        <mxCell id="YhMfxbLQYq7M46aQQ9Mp-9" value="&lt;font style=&quot;font-size: 10px;&quot;&gt;Transactional Records about Sales &amp;amp; Orders&lt;/font&gt;" style="text;html=1;align=center;verticalAlign=middle;whiteSpace=wrap;rounded=0;" parent="1" vertex="1">
          <mxGeometry x="60" y="360" width="140" height="30" as="geometry" />
        </mxCell>
        <mxCell id="YhMfxbLQYq7M46aQQ9Mp-10" value="&lt;b&gt;&lt;font style=&quot;font-size: 14px;&quot;&gt;crm_prd_info&lt;/font&gt;&lt;/b&gt;" style="swimlane;fontStyle=0;childLayout=stackLayout;horizontal=1;startSize=30;horizontalStack=0;resizeParent=1;resizeParentMax=0;resizeLast=0;collapsible=1;marginBottom=0;whiteSpace=wrap;html=1;fillColor=#dae8fc;strokeColor=#6c8ebf;rounded=1;" parent="1" vertex="1">
          <mxGeometry x="320" y="290" width="180" height="60" as="geometry" />
        </mxCell>
        <mxCell id="YhMfxbLQYq7M46aQQ9Mp-11" value="prd_key" style="text;strokeColor=none;fillColor=none;align=left;verticalAlign=middle;spacingLeft=4;spacingRight=4;overflow=hidden;points=[[0,0.5],[1,0.5]];portConstraint=eastwest;rotatable=0;whiteSpace=wrap;html=1;" parent="YhMfxbLQYq7M46aQQ9Mp-10" vertex="1">
          <mxGeometry y="30" width="180" height="30" as="geometry" />
        </mxCell>
        <mxCell id="YhMfxbLQYq7M46aQQ9Mp-13" value="&lt;font style=&quot;font-size: 10px;&quot;&gt;Current &amp;amp; Histroy Production Information&lt;/font&gt;" style="text;html=1;align=center;verticalAlign=middle;whiteSpace=wrap;rounded=0;" parent="1" vertex="1">
          <mxGeometry x="340" y="260" width="140" height="30" as="geometry" />
        </mxCell>
        <mxCell id="YhMfxbLQYq7M46aQQ9Mp-14" style="edgeStyle=orthogonalEdgeStyle;rounded=0;orthogonalLoop=1;jettySize=auto;html=1;entryX=0;entryY=0.5;entryDx=0;entryDy=0;" parent="1" source="YhMfxbLQYq7M46aQQ9Mp-7" target="YhMfxbLQYq7M46aQQ9Mp-11" edge="1">
          <mxGeometry relative="1" as="geometry" />
        </mxCell>
        <mxCell id="YhMfxbLQYq7M46aQQ9Mp-16" style="edgeStyle=orthogonalEdgeStyle;rounded=0;orthogonalLoop=1;jettySize=auto;html=1;entryX=0;entryY=0.5;entryDx=0;entryDy=0;" parent="1" source="YhMfxbLQYq7M46aQQ9Mp-8" target="YhMfxbLQYq7M46aQQ9Mp-2" edge="1">
          <mxGeometry relative="1" as="geometry" />
        </mxCell>
        <mxCell id="YhMfxbLQYq7M46aQQ9Mp-17" value="&lt;b&gt;&lt;font style=&quot;font-size: 14px;&quot;&gt;erp_loc_a101&lt;/font&gt;&lt;/b&gt;" style="swimlane;fontStyle=0;childLayout=stackLayout;horizontal=1;startSize=30;horizontalStack=0;resizeParent=1;resizeParentMax=0;resizeLast=0;collapsible=1;marginBottom=0;whiteSpace=wrap;html=1;fillColor=#fff2cc;strokeColor=#d6b656;rounded=1;" parent="1" vertex="1">
          <mxGeometry x="700" y="540" width="180" height="60" as="geometry" />
        </mxCell>
        <mxCell id="YhMfxbLQYq7M46aQQ9Mp-18" value="cid" style="text;strokeColor=none;fillColor=none;align=left;verticalAlign=middle;spacingLeft=4;spacingRight=4;overflow=hidden;points=[[0,0.5],[1,0.5]];portConstraint=eastwest;rotatable=0;whiteSpace=wrap;html=1;" parent="YhMfxbLQYq7M46aQQ9Mp-17" vertex="1">
          <mxGeometry y="30" width="180" height="30" as="geometry" />
        </mxCell>
        <mxCell id="YhMfxbLQYq7M46aQQ9Mp-20" value="&lt;font style=&quot;font-size: 10px;&quot;&gt;Location of Customers&lt;/font&gt;" style="text;html=1;align=center;verticalAlign=middle;whiteSpace=wrap;rounded=0;" parent="1" vertex="1">
          <mxGeometry x="720" y="510" width="140" height="30" as="geometry" />
        </mxCell>
        <mxCell id="YhMfxbLQYq7M46aQQ9Mp-21" value="&lt;b&gt;&lt;font style=&quot;font-size: 14px;&quot;&gt;erp_cust_az12&lt;/font&gt;&lt;/b&gt;" style="swimlane;fontStyle=0;childLayout=stackLayout;horizontal=1;startSize=30;horizontalStack=0;resizeParent=1;resizeParentMax=0;resizeLast=0;collapsible=1;marginBottom=0;whiteSpace=wrap;html=1;fillColor=#fff2cc;strokeColor=#d6b656;rounded=1;" parent="1" vertex="1">
          <mxGeometry x="700" y="420" width="180" height="60" as="geometry" />
        </mxCell>
        <mxCell id="YhMfxbLQYq7M46aQQ9Mp-22" value="cid" style="text;strokeColor=none;fillColor=none;align=left;verticalAlign=middle;spacingLeft=4;spacingRight=4;overflow=hidden;points=[[0,0.5],[1,0.5]];portConstraint=eastwest;rotatable=0;whiteSpace=wrap;html=1;" parent="YhMfxbLQYq7M46aQQ9Mp-21" vertex="1">
          <mxGeometry y="30" width="180" height="30" as="geometry" />
        </mxCell>
        <mxCell id="YhMfxbLQYq7M46aQQ9Mp-24" value="&lt;font style=&quot;font-size: 10px;&quot;&gt;Birthday and Gender of Customers&lt;/font&gt;" style="text;html=1;align=center;verticalAlign=middle;whiteSpace=wrap;rounded=0;" parent="1" vertex="1">
          <mxGeometry x="720" y="390" width="140" height="30" as="geometry" />
        </mxCell>
        <mxCell id="YhMfxbLQYq7M46aQQ9Mp-25" value="&lt;b&gt;&lt;font style=&quot;font-size: 14px;&quot;&gt;erp_px_cat_g1v2&lt;/font&gt;&lt;/b&gt;" style="swimlane;fontStyle=0;childLayout=stackLayout;horizontal=1;startSize=30;horizontalStack=0;resizeParent=1;resizeParentMax=0;resizeLast=0;collapsible=1;marginBottom=0;whiteSpace=wrap;html=1;fillColor=#fff2cc;strokeColor=#d6b656;rounded=1;" parent="1" vertex="1">
          <mxGeometry x="700" y="290" width="180" height="60" as="geometry" />
        </mxCell>
        <mxCell id="YhMfxbLQYq7M46aQQ9Mp-26" value="id" style="text;strokeColor=none;fillColor=none;align=left;verticalAlign=middle;spacingLeft=4;spacingRight=4;overflow=hidden;points=[[0,0.5],[1,0.5]];portConstraint=eastwest;rotatable=0;whiteSpace=wrap;html=1;" parent="YhMfxbLQYq7M46aQQ9Mp-25" vertex="1">
          <mxGeometry y="30" width="180" height="30" as="geometry" />
        </mxCell>
        <mxCell id="YhMfxbLQYq7M46aQQ9Mp-27" value="&lt;font style=&quot;font-size: 10px;&quot;&gt;Product Categories&lt;/font&gt;" style="text;html=1;align=center;verticalAlign=middle;whiteSpace=wrap;rounded=0;" parent="1" vertex="1">
          <mxGeometry x="720" y="260" width="140" height="30" as="geometry" />
        </mxCell>
        <mxCell id="YhMfxbLQYq7M46aQQ9Mp-31" value="" style="rounded=1;whiteSpace=wrap;html=1;fillColor=none;dashed=1;" parent="1" vertex="1">
          <mxGeometry x="30" y="180" width="540" height="450" as="geometry" />
        </mxCell>
        <mxCell id="YhMfxbLQYq7M46aQQ9Mp-32" value="" style="rounded=1;whiteSpace=wrap;html=1;fillColor=none;dashed=1;" parent="1" vertex="1">
          <mxGeometry x="581" y="180" width="370" height="450" as="geometry" />
        </mxCell>
        <mxCell id="YhMfxbLQYq7M46aQQ9Mp-33" value="&lt;b&gt;&lt;font style=&quot;font-size: 24px;&quot;&gt;CRM&lt;/font&gt;&lt;/b&gt;" style="rounded=1;whiteSpace=wrap;html=1;fillColor=#dae8fc;strokeColor=#6c8ebf;" parent="1" vertex="1">
          <mxGeometry x="240" y="150" width="120" height="50" as="geometry" />
        </mxCell>
        <mxCell id="YhMfxbLQYq7M46aQQ9Mp-34" value="&lt;b&gt;&lt;font style=&quot;font-size: 24px;&quot;&gt;ERP&lt;/font&gt;&lt;/b&gt;" style="rounded=1;whiteSpace=wrap;html=1;fillColor=#fff2cc;strokeColor=#d6b656;" parent="1" vertex="1">
          <mxGeometry x="706" y="150" width="120" height="50" as="geometry" />
        </mxCell>
        <mxCell id="YhMfxbLQYq7M46aQQ9Mp-36" style="edgeStyle=orthogonalEdgeStyle;rounded=0;orthogonalLoop=1;jettySize=auto;html=1;entryX=1;entryY=0.5;entryDx=0;entryDy=0;" parent="1" source="YhMfxbLQYq7M46aQQ9Mp-26" target="YhMfxbLQYq7M46aQQ9Mp-11" edge="1">
          <mxGeometry relative="1" as="geometry" />
        </mxCell>
        <mxCell id="YhMfxbLQYq7M46aQQ9Mp-37" style="edgeStyle=orthogonalEdgeStyle;rounded=0;orthogonalLoop=1;jettySize=auto;html=1;entryX=1;entryY=0.5;entryDx=0;entryDy=0;" parent="1" source="YhMfxbLQYq7M46aQQ9Mp-18" target="YhMfxbLQYq7M46aQQ9Mp-3" edge="1">
          <mxGeometry relative="1" as="geometry" />
        </mxCell>
        <mxCell id="YhMfxbLQYq7M46aQQ9Mp-38" style="edgeStyle=orthogonalEdgeStyle;rounded=0;orthogonalLoop=1;jettySize=auto;html=1;entryX=1;entryY=0.5;entryDx=0;entryDy=0;" parent="1" source="YhMfxbLQYq7M46aQQ9Mp-22" target="YhMfxbLQYq7M46aQQ9Mp-3" edge="1">
          <mxGeometry relative="1" as="geometry" />
        </mxCell>
        <mxCell id="BW5uwkZBU5FjevJIlQYa-1" value="&lt;b&gt;&lt;font&gt;Product&lt;/font&gt;&lt;/b&gt;" style="rounded=1;whiteSpace=wrap;html=1;fillColor=#f8cecc;strokeColor=#b85450;" vertex="1" parent="1">
          <mxGeometry x="345" y="350" width="130" height="20" as="geometry" />
        </mxCell>
        <mxCell id="BW5uwkZBU5FjevJIlQYa-2" value="&lt;b&gt;&lt;font&gt;Product&lt;/font&gt;&lt;/b&gt;" style="rounded=1;whiteSpace=wrap;html=1;fillColor=#f8cecc;strokeColor=#b85450;" vertex="1" parent="1">
          <mxGeometry x="725" y="350" width="130" height="20" as="geometry" />
        </mxCell>
        <mxCell id="BW5uwkZBU5FjevJIlQYa-3" value="&lt;b&gt;&lt;font&gt;Customer&lt;/font&gt;&lt;/b&gt;" style="rounded=1;whiteSpace=wrap;html=1;fillColor=#d5e8d4;strokeColor=#82b366;" vertex="1" parent="1">
          <mxGeometry x="725" y="480" width="130" height="20" as="geometry" />
        </mxCell>
        <mxCell id="BW5uwkZBU5FjevJIlQYa-4" value="&lt;b&gt;&lt;font&gt;Customer&lt;/font&gt;&lt;/b&gt;" style="rounded=1;whiteSpace=wrap;html=1;fillColor=#d5e8d4;strokeColor=#82b366;" vertex="1" parent="1">
          <mxGeometry x="725" y="600" width="130" height="20" as="geometry" />
        </mxCell>
        <mxCell id="BW5uwkZBU5FjevJIlQYa-5" value="&lt;b&gt;&lt;font&gt;Customer&lt;/font&gt;&lt;/b&gt;" style="rounded=1;whiteSpace=wrap;html=1;fillColor=#d5e8d4;strokeColor=#82b366;" vertex="1" parent="1">
          <mxGeometry x="345" y="600" width="130" height="20" as="geometry" />
        </mxCell>
        <mxCell id="BW5uwkZBU5FjevJIlQYa-6" value="&lt;b&gt;&lt;font&gt;Sales&lt;/font&gt;&lt;/b&gt;" style="rounded=1;whiteSpace=wrap;html=1;fillColor=#e1d5e7;strokeColor=#9673a6;" vertex="1" parent="1">
          <mxGeometry x="65" y="480" width="130" height="20" as="geometry" />
        </mxCell>
      </root>
    </mxGraphModel>
  </diagram>
</mxfile>
